PathFileType	3	(X/Y/Z)	D:\minhoCalibration\240510\subject2_KPNP\preferred\preferred02.trc
DataRate	CameraRate	NumFrames	NumMarkers	Units	OrigDataRate	OrigDataStartFrame	OrigNumFrames
200.0	200.0	15	10	mm	200.0	378	197	
Frame#	Time	Left_Ankle_Outer1			Left_Ankle_Inner1			Left_Knee_Outer1			Left_Knee_Inner1			Left_Wrist1			Right_Wrist1			Right_Knee_Inner1			Right_Knee_Outer1			Right_Ankle_Inner1			Right_Ankle_Outer1			
		X1	Y1	Z1	X2	Y2	Z2	X3	Y3	Z3	X4	Y4	Z4	X5	Y5	Z5	X6	Y6	Z6	X7	Y7	Z7	X8	Y8	Z8	X9	Y9	Z9	X10	Y10	Z10	
378	1.88	-446.30182	92.816727	-768.64099	-433.62155	96.378479	-714.54327	-299.34988	512.99591	-837.02502	-286.21954	494.8718	-738.79413	-396.21484	925.0509	-883.95966	-348.7424	1168.4905	-637.0719	-238.30135	973.21301	-220.90163	-222.64911	1061.9348	-247.37695	-324.27179	1069.1084	172.11322	-279.91583	1156.257	155.63377
379	1.885	-445.98065	93.621468	-767.70215	-433.34537	97.408035	-712.96222	-298.83435	513.96094	-833.87262	-285.91983	495.63522	-736.12866	-394.6376	925.42261	-880.01624	-350.383	1170.3853	-634.51752	-229.69153	972.24152	-221.40347	-212.61937	1058.8315	-245.78479	-332.37524	1068.3951	169.42078	-286.66501	1155.2563	156.93893
380	1.89	-445.66422	94.366859	-766.39679	-433.12918	97.885368	-711.58789	-298.73846	514.77502	-830.34888	-285.3606	496.43933	-733.42499	-393.41736	925.51276	-876.94354	-351.93109	1171.8959	-632.0246	-225.45895	972.40045	-222.20505	-204.41701	1054.6938	-244.10484	-339.39398	1064.6742	166.78955	-294.4241	1151.5897	158.15268
381	1.895	-445.31085	95.133713	-764.71759	-433.32928	98.925415	-708.41119	-297.47128	516.27142	-827.43878	-284.69867	497.30444	-730.74188	-392.42273	925.68585	-874.14642	-354.26797	1172.3588	-628.8847	-224.83052	974.17963	-220.65009	-194.86682	1050.2649	-243.20509	-344.461	1061.8059	164.85054	-300.68179	1148.311	157.31288
382	1.9	-444.9903	95.695557	-762.53198	-432.87915	98.29982	-708.14185	-296.16434	517.47217	-824.22083	-283.97629	498.11282	-728.10291	-391.55005	925.66583	-871.55334	-356.35156	1172.3887	-626.01044	-227.16086	976.91284	-216.50737	-191.09337	1046.786	-243.1403	-346.94696	1058.3433	166.79428	-304.53751	1146.8309	159.09749
383	1.905	-444.77829	96.387543	-760.32007	-432.86075	98.280617	-706.11072	-294.4263	519.08075	-821.10077	-283.25989	498.97415	-725.47437	-390.47275	925.32617	-869.5246	-358.61124	1172.1292	-623.27618	-230.58441	980.43365	-214.05957	-193.36208	1051.7966	-243.41504	-347.16318	1054.4354	170.63493	-306.30023	1143.551	163.08047
384	1.91	-444.57004	96.895676	-757.54932	-432.314	99.339912	-702.96234	-292.70795	520.33801	-818.18378	-282.66656	499.65756	-722.89758	-389.88641	924.76306	-867.44312	-360.74841	1171.713	-620.52997	-233.19347	985.89502	-215.18634	-199.68225	1063.103	-243.26166	-345.97076	1046.7871	173.59401	-309.59689	1138.3556	168.70984
385	1.915	-444.3074	97.190727	-753.92743	-431.98343	99.439919	-699.74969	-291.51038	521.23578	-815.03833	-282.34268	500.40585	-720.42462	-389.42834	923.94739	-865.65448	-362.66168	1171.1277	-617.97717	-234.03334	990.92236	-217.28654	-210.43912	1075.1284	-242.10426	-345.10791	1037.1235	176.43875	-314.46921	1130.3389	172.85484
386	1.92	-444.3671	97.648232	-749.66132	-431.86148	100.54483	-694.09436	-290.44666	521.867	-812.1441	-282.43207	500.90427	-717.78241	-388.57037	922.9328	-864.90369	-364.04568	1170.5908	-615.77875	-232.27049	995.9325	-218.89249	-222.83389	1084.75	-240.18005	-343.60025	1024.8304	178.87013	-320.07224	1120.2206	176.12291
387	1.925	-444.53668	97.955055	-745.02209	-431.59543	98.915573	-691.82715	-290.03946	521.73419	-809.38617	-282.67441	501.24527	-714.99689	-387.7872	922.52704	-864.34351	-364.99469	1170.2861	-614.12299	-228.51624	1001.4597	-220.28549	-235.00035	1090.312	-237.05611	-340.22186	1011.1772	180.92622	-325.11627	1108.0634	179.3002
388	1.93	-444.76859	98.110428	-739.89465	-431.10516	99.344322	-686.54108	-289.82861	521.70697	-806.55688	-283.16309	501.38361	-711.93152	-387.09149	921.99609	-862.51648	-365.65607	1170.4463	-613.3125	-224.63132	1007.0516	-222.08896	-243.00589	1093.807	-235.16989	-333.05331	994.84039	179.76151	-328.63461	1095.186	182.49924
389	1.935	-444.62454	97.726776	-733.97705	-430.647	99.277229	-681.42999	-289.63782	521.69214	-803.75873	-283.60767	501.40668	-708.69928	-386.12592	920.95337	-860.3725	-366.42068	1171.182	-613.31213	-222.83633	1011.9265	-223.18553	-249.47679	1095.7533	-233.21542	-327.36777	982.66003	180.57024	-330.64731	1082.2692	185.25076
390	1.94	-445.06046	98.018829	-729.11163	-429.97247	99.743797	-675.51422	-289.80518	521.28632	-800.83514	-284.07172	501.34854	-705.34143	-384.30301	920.59436	-859.44971	-367.29736	1171.9683	-613.53265	-220.94548	1015.5122	-222.53789	-256.02393	1096.2937	-231.08156	-324.49023	973.47522	181.93266	-332.49753	1070.0408	187.27562
391	1.945	-444.7327	97.614159	-723.49445	-429.16406	99.376999	-670.97223	-289.38141	520.86694	-798.36108	-284.58295	501.12247	-701.87732	-382.31848	920.26495	-857.50519	-368.19669	1172.6486	-613.54608	-220.11967	1017.0178	-220.5797	-261.83432	1095.8333	-228.64789	-320.48517	963.1582	181.35046	-334.77692	1059.3524	188.9565
392	1.95	-444.7742	97.686874	-719.11884	-428.70276	99.425705	-665.43414	-289.26944	519.9906	-795.2821	-285.082	500.92834	-698.5556	-380.14682	920.04767	-857.05286	-369.42416	1173.0496	-613.18951	-221.77573	1016.5859	-218.33186	-266.70361	1094.4058	-226.12827	-319.79874	953.9704	181.68726	-338.2836	1049.2804	190.24174
